<svg width="180" height="115" viewBox="0 0 180 115" fill="none" xmlns="http://www.w3.org/2000/svg">
<path d="M18.752 62.576L4.48 22.96C4.13867 22.064 3.73333 21.488 3.264 21.232C2.79467 20.9333 1.77067 20.592 0.192 20.208L0.64 17.648H15.872L16.128 20.272L11.584 21.488C11.2853 21.5307 11.136 21.6587 11.136 21.872C11.136 22.0427 11.2213 22.384 11.392 22.896L21.248 51.888C21.632 52.9547 21.824 53.68 21.824 54.064H22.464L32.448 25.584C33.0453 23.92 33.344 22.832 33.344 22.32C33.344 21.5093 31.7867 20.8053 28.672 20.208L29.056 17.648H41.664L41.92 20.336C40.1707 20.6773 39.0613 21.0613 38.592 21.488C38.1227 21.9147 37.6747 22.7253 37.248 23.92L23.168 62.576H18.752ZM60.2415 62.576C55.9322 62.576 52.5828 61.104 50.1935 58.16C47.8468 55.216 46.6735 51.504 46.6735 47.024C46.6735 42.5013 48.0388 38.6613 50.7695 35.504C53.5002 32.3467 57.1055 30.768 61.5855 30.768C68.8388 30.768 72.6362 35.2267 72.9775 44.144L71.3135 45.36L52.7535 46.384C52.7535 54.2773 56.1242 58.224 62.8655 58.224C65.8095 58.224 68.6895 57.4987 71.5055 56.048L72.8495 58.16C71.4415 59.312 69.6068 60.336 67.3455 61.232C65.0842 62.128 62.7162 62.576 60.2415 62.576ZM52.9455 43.44L66.1935 42.288C66.6202 42.2453 66.8335 41.84 66.8335 41.072C66.8335 39.1947 66.3215 37.5733 65.2975 36.208C64.3162 34.8427 62.6308 34.16 60.2415 34.16C57.8522 34.16 56.1028 34.9707 54.9935 36.592C53.9268 38.1707 53.2442 40.4533 52.9455 43.44ZM87.86 63.536C86.6653 64.8587 86.068 66.288 86.068 67.824C86.068 69.36 86.708 70.576 87.988 71.472C89.268 72.368 91.444 72.816 94.516 72.816C97.6307 72.816 100.041 72.176 101.748 70.896C103.455 69.616 104.308 68.336 104.308 67.056C104.308 65.776 103.604 64.9867 102.196 64.688C100.788 64.432 98.548 64.2827 95.476 64.24C92.4467 64.1973 89.908 63.9627 87.86 63.536ZM82.356 58.096C82.356 56.3893 82.996 54.7467 84.276 53.168C85.172 52.0587 86.196 51.056 87.348 50.16C86.708 49.8613 86.1107 49.4987 85.556 49.072C83.4227 47.3653 82.356 44.8053 82.356 41.392C82.356 37.936 83.5293 35.312 85.876 33.52C88.2227 31.6853 91.1453 30.768 94.644 30.768C97.7587 30.768 100.34 31.4293 102.388 32.752C105.161 31.4293 107.849 30.7253 110.452 30.64C110.879 31.3653 111.092 32.24 111.092 33.264C111.092 34.2453 111.028 34.928 110.9 35.312C109.449 34.9707 107.935 34.8 106.356 34.8C105.716 34.8 105.14 34.8 104.628 34.8C105.823 36.4213 106.42 38.512 106.42 41.072C106.42 44.4853 105.247 47.1093 102.9 48.944C100.553 50.736 97.6307 51.632 94.132 51.632C92.1693 51.632 90.4413 51.376 88.948 50.864C87.668 52.4 87.028 53.872 87.028 55.28C87.028 56.56 87.7533 57.328 89.204 57.584C90.484 57.7973 91.9133 57.904 93.492 57.904C95.1133 57.904 96.3507 57.9253 97.204 57.968C98.1 57.968 99.2307 58.032 100.596 58.16C101.961 58.288 103.028 58.5013 103.796 58.8C104.607 59.0987 105.439 59.4827 106.292 59.952C107.871 60.848 108.66 62.4267 108.66 64.688C108.66 67.76 107.124 70.4053 104.052 72.624C100.98 74.8853 96.8413 76.016 91.636 76.016C84.6387 76.016 81.14 74.0107 81.14 70C81.14 68.5493 81.5453 67.2907 82.356 66.224C83.2093 65.2 84.4253 64.112 86.004 62.96C83.572 62.192 82.356 60.5707 82.356 58.096ZM94.58 48.496C98.548 48.496 100.532 46.064 100.532 41.2C100.532 36.336 98.42 33.904 94.196 33.904C90.228 33.904 88.244 36.336 88.244 41.2C88.244 46.064 90.356 48.496 94.58 48.496ZM3.2 113L2.816 110.504C5.07733 110.12 6.44267 109.693 6.912 109.224C7.424 108.755 7.68 107.859 7.68 106.536V75.112C7.68 73.7893 7.424 72.8933 6.912 72.424C6.44267 71.9547 5.07733 71.528 2.816 71.144L3.2 68.648H33.024C33.28 70.2267 33.408 71.8053 33.408 73.384C33.408 74.92 33.3653 76.6693 33.28 78.632L29.632 79.08C29.0347 76.136 28.608 74.3013 28.352 73.576C28.096 72.808 27.7973 72.4027 27.456 72.36C26.432 72.232 25.1307 72.1467 23.552 72.104L13.888 71.912V89.704H23.744C24.8107 89.704 25.7493 88.1893 26.56 85.16L28.544 85.352C28.544 88.4667 28.5867 90.6427 28.672 91.88C28.8 93.1173 28.864 93.864 28.864 94.12C28.9067 94.376 28.992 94.9947 29.12 95.976C29.2907 96.9573 29.3973 97.64 29.44 98.024L27.136 98.408C26.112 94.8667 25.1307 93.096 24.192 93.096H13.888V108.072C13.888 109.096 14.3147 109.651 15.168 109.736L21.632 110.504L21.376 113H3.2ZM52.0255 105.128C52.0255 101.928 53.3908 99.5387 56.1215 97.96C58.8522 96.3813 63.2895 95.5707 69.4335 95.528V93.48C69.4335 87.9333 67.4282 85.16 63.4175 85.16C61.4975 85.16 60.2815 85.4373 59.7695 85.992C59.3002 86.5467 58.7882 88.36 58.2335 91.432L54.7775 91.048C54.4362 89.7253 54.2655 88.36 54.2655 86.952C54.2655 85.5013 54.2868 84.5627 54.3295 84.136C56.8468 82.5573 60.1535 81.768 64.2495 81.768C68.3455 81.768 71.1828 82.5573 72.7615 84.136C74.3828 85.7147 75.1935 88.3173 75.1935 91.944V106.664C75.1935 107.773 75.4495 108.563 75.9615 109.032C76.5162 109.459 77.8815 109.885 80.0575 110.312L79.6735 112.36L71.9935 113.192C71.5668 113.192 71.1188 112.787 70.6495 111.976C70.1802 111.165 69.9455 110.419 69.9455 109.736C69.9455 109.011 69.9668 108.477 70.0095 108.136L69.4975 107.944L68.7295 109.096C66.7242 112.083 63.9722 113.576 60.4735 113.576C58.0842 113.576 56.0788 112.829 54.4575 111.336C52.8362 109.843 52.0255 107.773 52.0255 105.128ZM58.2335 104.552C58.2335 106.088 58.6388 107.261 59.4495 108.072C60.2602 108.84 61.4122 109.224 62.9055 109.224C64.3988 109.224 66.0842 108.499 67.9615 107.048C68.9428 106.28 69.4335 105.469 69.4335 104.616V98.344C65.5935 98.4293 62.7562 98.9413 60.9215 99.88C59.1295 100.819 58.2335 102.376 58.2335 104.552ZM110.824 85.16C107.069 85.16 105.192 86.44 105.192 89C105.192 90.024 105.448 90.792 105.96 91.304C106.472 91.7733 106.834 92.136 107.048 92.392C107.304 92.6053 107.773 92.8827 108.456 93.224C109.138 93.5653 109.608 93.8213 109.864 93.992C110.162 94.12 110.738 94.3547 111.592 94.696C115.176 96.1893 117.693 97.5973 119.144 98.92C120.594 100.243 121.32 102.12 121.32 104.552C121.32 106.984 120.232 109.096 118.056 110.888C115.922 112.68 112.978 113.576 109.224 113.576C107.56 113.576 105.832 113.405 104.04 113.064C102.248 112.723 100.946 112.381 100.136 112.04C100.05 111.485 100.008 110.355 100.008 108.648C100.008 106.941 100.2 105.085 100.584 103.08L103.912 102.824C104.21 105.555 104.424 107.24 104.552 107.88C104.722 108.477 104.957 108.861 105.256 109.032C106.621 109.8 108.413 110.184 110.632 110.184C114.088 110.184 115.816 108.797 115.816 106.024C115.816 104.701 115.304 103.613 114.28 102.76C113.128 101.821 111.805 101.032 110.312 100.392C106.386 98.7707 103.698 97.2987 102.248 95.976C100.84 94.6107 100.136 92.7333 100.136 90.344C100.136 87.9547 101.224 85.928 103.4 84.264C105.576 82.6 108.2 81.768 111.272 81.768C114.344 81.768 117.16 82.3013 119.72 83.368C119.762 83.7093 119.784 84.6693 119.784 86.248C119.784 87.8267 119.506 89.4907 118.952 91.24L116.008 91.56C115.709 88.232 115.218 86.3333 114.536 85.864C113.896 85.3947 112.658 85.16 110.824 85.16ZM144.265 104.232V86.632H140.105L139.849 83.88L142.985 83.112C143.796 82.8987 144.329 82.4293 144.585 81.704C144.884 80.936 145.396 78.5467 146.121 74.536L150.025 74.152V82.728H158.921L158.409 85.736L150.025 86.696V102.312C150.025 106.749 151.39 108.968 154.121 108.968C155.657 108.968 157.278 108.328 158.985 107.048L160.329 108.904C158.025 112.019 155.209 113.576 151.881 113.576C149.492 113.576 147.614 112.744 146.249 111.08C144.926 109.416 144.265 107.133 144.265 104.232Z" fill="white"/>
<g clip-path="url(#clip0)">
<path d="M175.256 20.7069C175.036 19.7788 174.202 19.125 173.252 19.125C173.247 19.125 173.243 19.125 173.239 19.125C162.376 19.1931 135.96 21.0142 125.294 36.4088C119.754 44.4071 119.278 54.7918 123.877 67.2741C123.912 67.371 123.985 67.437 124.032 67.5257C122.388 71.595 121.751 74.3031 121.734 74.3794C121.495 75.4931 122.207 76.5904 123.321 76.8296C123.465 76.8606 123.609 76.875 123.754 76.875C124.704 76.875 125.56 76.2129 125.769 75.2456C125.812 75.0352 131.067 53.8513 149.646 41.466C150.595 40.8349 150.851 39.5541 150.218 38.6053C149.584 37.6566 148.306 37.3988 147.357 38.034C136.822 45.0568 130.333 54.5505 126.517 62.0745C123.787 52.6324 124.502 44.7969 128.687 38.7579C136.923 26.8697 156.457 24.0028 168.248 23.3964C165.711 27.111 162.939 33.9214 162.939 45.9375C162.939 52.3725 161.114 57.3266 157.517 60.6637C151.75 66.0077 142.382 66.5089 135.531 65.9933C134.392 65.9004 133.404 66.7584 133.317 67.8949C133.231 69.0293 134.083 70.0192 135.217 70.1059C136.589 70.2111 138.053 70.275 139.575 70.275C146.55 70.275 154.687 68.9076 160.32 63.6874C164.795 59.5397 167.064 53.5688 167.064 45.9396C167.064 27.1729 174.138 23.0541 174.174 23.0355C175.032 22.6044 175.481 21.6392 175.256 20.7069Z" fill="white"/>
</g>
<defs>
<clipPath id="clip0">
<rect width="66" height="66" fill="white" transform="translate(114 15)"/>
</clipPath>
</defs>
</svg>
